<?xml version="1.0" encoding="utf-8"?>
<!-- Generator: Adobe Illustrator 16.0.0, SVG Export Plug-In . SVG Version: 6.00 Build 0)  -->
<!DOCTYPE svg PUBLIC "-//W3C//DTD SVG 1.1//EN" "http://www.w3.org/Graphics/SVG/1.1/DTD/svg11.dtd">
<svg version="1.1"
	 id="Ebene_1" xmlns:cc="http://creativecommons.org/ns#" xmlns:inkscape="http://www.inkscape.org/namespaces/inkscape" xmlns:sodipodi="http://sodipodi.sourceforge.net/DTD/sodipodi-0.dtd" xmlns:dc="http://purl.org/dc/elements/1.1/" xmlns:svg="http://www.w3.org/2000/svg" xmlns:rdf="http://www.w3.org/1999/02/22-rdf-syntax-ns#"
	 xmlns="http://www.w3.org/2000/svg" xmlns:xlink="http://www.w3.org/1999/xlink" x="0px" y="0px" width="800px" height="1280px"
	 viewBox="0 0 800 1280" enable-background="new 0 0 800 1280" xml:space="preserve">
<g transform="translate(0,-952.36218)">
	<path class="icon" d="M400.125,1202.487c-159.762,0-290,129.987-290,289.75c0,159.762,130.238,289.999,290,289.999
		c159.764,0,289.75-130.237,289.75-289.999C689.875,1332.474,559.889,1202.487,400.125,1202.487z M400.125,1257.237
		c130.166,0,235,104.834,235,235c0,130.164-104.834,235.249-235,235.249c-130.165,0-235.25-105.085-235.25-235.249
		C164.875,1362.071,269.96,1257.237,400.125,1257.237L400.125,1257.237z M399.629,1369.487
		c-15.118,0.209-27.207,12.631-27.004,27.75v67.5h-67.5c-15.119-0.42-27.715,11.496-28.134,26.615s11.497,27.715,26.616,28.135
		c0.506,0.014,1.013,0.014,1.519,0h67.5v67.5c-0.415,15.119,11.504,27.712,26.623,28.127c15.119,0.416,27.712-11.504,28.128-26.623
		c0.014-0.501,0.014-1.002,0-1.504v-67.5h67.499c15.119,0.42,27.715-11.496,28.135-26.615c0.419-15.119-11.497-27.715-26.616-28.135
		c-0.506-0.014-1.013-0.014-1.519,0h-67.499v-67.5c0.202-15.123-11.893-27.547-27.016-27.75c-0.245-0.003-0.49-0.003-0.735,0
		H399.629z"/>
</g>
</svg>
