<svg id="neutral" xmlns="http://www.w3.org/2000/svg" width="400" height="400" viewBox="0 0 400 400"><style>.st0{fill:rgba(88, 96, 64, 0.70)}</style><path class="st0" d="M200.002.008C89.724.008 0 89.721 0 200c0 110.274 89.724 199.992 200.002 199.992C310.277 399.992 400 310.274 400 200S310.277.008 200.002.008zm0 376.21c-97.171 0-176.231-79.055-176.231-176.223 0-97.167 79.06-176.222 176.231-176.222 97.174 0 176.227 79.055 176.227 176.222 0 97.168-79.053 176.223-176.227 176.223zm98.147-146.339H101.855c-5.249 0-9.508 4.26-9.508 9.509 0 5.248 4.259 9.508 9.508 9.508h196.299c5.248 0 9.508-4.26 9.508-9.508 0-5.249-4.26-9.509-9.513-9.509zM136.18 167.302c8.671 0 15.684-7.017 15.684-15.679 0-8.657-7.012-15.674-15.684-15.674-8.652 0-15.674 7.017-15.674 15.674 0 8.662 7.021 15.679 15.674 15.679zm125.412-.01c8.65 0 15.668-7.017 15.668-15.669s-7.018-15.67-15.668-15.67c-8.654 0-15.67 7.018-15.67 15.67s7.016 15.669 15.67 15.669z"/></svg>