<svg id="Ebene_1" xmlns="http://www.w3.org/2000/svg" width="400" height="400" viewBox="0 0 400 400"><style>.st0{fill:#0f7394}</style><path class="st0" d="M261.585 167.296c8.653 0 15.671-7.017 15.671-15.674 0-8.663-7.018-15.675-15.671-15.675-8.655 0-15.678 7.013-15.678 15.675 0 8.661 7.023 15.674 15.678 15.674zM200 0C89.721 0 0 89.722 0 200s89.721 200 200 200 200-89.722 200-200S310.279 0 200 0zm0 23.771c24.57 0 47.975 5.068 69.246 14.196-20.263 35.552-48.727 63.688-81.346 82.685l-1.44-13.806c-.485-4.641-4.636-8.006-9.266-7.521l-76.981 8.006c-4.635.485-8.006 4.63-7.521 9.261l3.546 31.763c-20.799 1.042-41.793-1.355-62.247-7.436C58.338 72.72 123.547 23.771 200 23.771zm0 352.458c-97.171 0-176.229-79.058-176.229-176.229 0-11.528 1.146-22.787 3.271-33.702a210.88 210.88 0 0 0 59.651 8.585c4.735 0 9.46-.171 14.176-.484 7.588 19.031 27.071 31.544 48.456 29.319 25.796-2.681 44.547-25.768 41.865-51.578l-.328-3.152c41.096-21.308 77.004-55.091 101.721-98.854 50.158 31.102 83.646 86.636 83.646 149.867 0 97.17-79.057 176.228-176.229 176.228zm91.424-143.563c-50.415 50.405-132.438 50.405-182.862 0a9.507 9.507 0 0 0-13.445 0c-3.713 3.713-3.713 9.737 0 13.445 28.92 28.91 66.901 43.367 104.883 43.367s75.963-14.457 104.873-43.367a9.507 9.507 0 0 0 0-13.445c-3.714-3.713-9.732-3.713-13.449 0z"/></svg>