<svg id="Ebene_1" xmlns="http://www.w3.org/2000/svg" width="400" height="400" viewBox="0 0 400 400"><style>.st0{fill:#0f7394}</style><path class="st0" d="M199.345 400.002C89.179 400.002 0 309.508 0 199.342 0 89.181 89.179-.002 199.345-.002 309.516-.002 400 89.181 400 200.663c0 111.473-90.484 199.339-200.655 199.339zm0-380.329c-99.669 0-179.674 80-179.674 179.669 0 99.674 81.313 180.981 180.984 180.981s180.986-81.307 180.986-180.981C380.33 99.673 299.015 19.673 199.345 19.673z"/><path class="st0" d="M301.636 161.311h-19.671a11.75 11.75 0 0 0-11.8-11.802 11.751 11.751 0 0 0-11.803 11.802H238.69c0-17.046 14.432-31.476 31.475-31.476 17.049 0 31.471 13.119 31.471 31.476zM161.312 161.311h-19.67a11.754 11.754 0 0 0-11.806-11.802 11.757 11.757 0 0 0-11.804 11.802H97.049c0-17.046 14.426-31.476 31.477-31.476 18.357-1.307 32.786 13.119 32.786 31.476zM199.345 317.379c-35.407 0-68.198-18.362-87.87-49.833l17.051-10.491c14.421 24.912 40.657 40.65 70.819 40.65 28.856 0 55.086-14.428 70.82-40.65l17.049 10.491c-19.679 31.471-52.453 49.833-87.869 49.833z"/></svg>