<svg id="Ebene_1" xmlns="http://www.w3.org/2000/svg" width="400" height="498" viewBox="0 0 400 498"><style>.st0{fill:rgba(88, 96, 64, 0.70)}</style><path id="smiley" class="st0" d="M261.791 264.254c8.688 0 15.727-7.039 15.727-15.719 0-8.697-7.038-15.735-15.727-15.735s-15.727 7.038-15.727 15.735c0 8.68 7.039 15.719 15.727 15.719zm-125.831 0c8.681 0 15.727-7.039 15.727-15.719 0-8.697-7.046-15.735-15.727-15.735-8.697 0-15.735 7.038-15.735 15.735 0 8.68 7.038 15.719 15.735 15.719zm192.25-120.597l34.463-86.029c1.747-4.409.566-9.441-2.961-12.588-3.544-3.163-8.705-3.737-12.863-1.48l-44.64 24.262-20.938-53.45a11.242 11.242 0 0 0-7.701-6.804 11.31 11.31 0 0 0-10.031 2.313l-44.188 37.368-27.457-42.108c-2.597-3.98-7.442-5.93-12.054-4.79a11.266 11.266 0 0 0-8.56 9.74l-9.619 90.665C68.935 118.845 0 201.799 0 297.074c0 110.283 89.718 200 200 200s200-89.717 200-200c0-59.655-26.146-115.257-71.79-153.417zM190.316 43.916L207.442 70.2a11.26 11.26 0 0 0 7.799 4.992 11.159 11.159 0 0 0 8.883-2.54l41.923-35.435L285.9 87.909a11.19 11.19 0 0 0 6.617 6.456 11.246 11.246 0 0 0 9.223-.679l28.444-15.468-24.561 61.338c-11.262.518-35.693.607-62.455-6.035-27.126-6.723-49.656-18.534-59.776-24.383l6.924-65.222zM200 474.568c-97.872 0-177.502-79.621-177.502-177.494 0-83.868 60.165-156.961 141.421-173.812.437.396.825.833 1.326 1.173 1.278.842 31.729 20.792 72.503 30.92 22.975 5.704 44.494 6.901 58.506 6.901 10.55 0 17.312-.664 18.203-.76 40.109 33.856 63.053 82.938 63.053 135.579 0 97.872-79.621 177.493-177.51 177.493zm98.487-155.942H101.513c-4.66 0-8.438 3.786-8.438 8.431 0 70.074 53.79 106.723 106.925 106.723s106.917-36.648 106.917-106.723c0-4.645-3.771-8.431-8.43-8.431zM200 416.903c-41.348 0-85.697-25.548-89.75-81.401h179.5c-4.062 55.869-48.41 81.401-89.75 81.401z"/></svg>