<svg id="Ebene_1" xmlns="http://www.w3.org/2000/svg" width="400" height="400" viewBox="0 0 400 400"><style>.st0{fill:#0f7394}</style><path class="st0" d="M200 400C89.722 400 0 310.278 0 200S89.722 0 200 0s200 89.722 200 200-89.722 200-200 200zm0-376.229c-97.171 0-176.229 79.058-176.229 176.229S102.829 376.229 200 376.229 376.229 297.171 376.229 200 297.171 23.771 200 23.771z"/><path class="st0" d="M200 289.479c-37.977 0-75.962-14.457-104.883-43.367-3.712-3.708-3.712-9.732 0-13.445a9.507 9.507 0 0 1 13.445 0c50.418 50.405 132.448 50.405 182.861 0a9.507 9.507 0 0 1 13.445 0 9.507 9.507 0 0 1 0 13.445c-28.906 28.909-66.887 43.367-104.868 43.367z"/><circle class="st0" cx="261.581" cy="151.621" r="15.675"/><path class="st0" d="M158.634 165.556a9.474 9.474 0 0 1-6.723-2.786c-3.908-3.908-9.099-6.062-14.619-6.062-5.515 0-10.707 2.154-14.615 6.062-3.703 3.713-9.731 3.713-13.444 0-3.713-3.708-3.713-9.731 0-13.445 7.498-7.501 17.467-11.633 28.059-11.633 10.597 0 20.567 4.131 28.064 11.633 3.712 3.714 3.712 9.737 0 13.445a9.474 9.474 0 0 1-6.722 2.786z"/></svg>